<svg width="29.999999999999996" height="29.999999999999996" xmlns="http://www.w3.org/2000/svg">

 <g>
  <title>background</title>
  <rect fill="none" id="canvas_background" height="32" width="32" y="-1" x="-1"/>
 </g>
 <g>
  <title>Layer 1</title>
  <path stroke="null" transform="translate(0,0) scale(0.9296453595161438,0.9618819355964661) translate(0,0) " id="svg_1" d="m14.799417,20.996738l0,-4.248135l-4.389657,0c-0.692743,0 -1.254188,-0.543344 -1.254188,-1.213753c0,-0.670172 0.561445,-1.213753 1.254188,-1.213753l4.389657,0l0,-4.248135c0,-0.670172 0.561445,-1.213753 1.254188,-1.213753s1.254188,0.543581 1.254188,1.213753l0,4.248135l4.389657,0c0.692743,0 1.254188,0.543581 1.254188,1.213753c0,0.670408 -0.561445,1.213753 -1.254188,1.213753l-4.389657,0l0,4.248135c0,0.670408 -0.561445,1.213753 -1.254188,1.213753s-1.254188,-0.543344 -1.254188,-1.213753zm12.605813,-16.44635c-3.032097,-2.934342 -7.063625,-4.550388 -11.351625,-4.550388s-8.319528,1.616046 -11.351625,4.550388c-3.032097,2.934342 -4.70198,6.835893 -4.70198,10.985648s1.669883,8.051306 4.70198,10.985648c3.032097,2.934342 7.063625,4.550388 11.351625,4.550388c2.935583,0 5.807968,-0.774241 8.306545,-2.239042c0.592555,-0.347295 0.781908,-1.093563 0.423043,-1.666776c-0.358864,-0.573451 -1.130239,-0.756699 -1.722549,-0.409405c-2.106644,1.234851 -4.529773,1.887718 -7.00704,1.887718c-7.468786,0 -13.545229,-5.880538 -13.545229,-13.10853s6.076442,-13.10853 13.545229,-13.10853s13.545229,5.880538 13.545229,13.10853c0,2.584677 -0.794156,5.10037 -2.296731,7.275642c-0.385075,0.557094 -0.230261,1.310948 0.345637,1.683608c0.575653,0.372423 1.354621,0.2226 1.739696,-0.334493c1.779134,-2.575669 2.719775,-5.558135 2.719775,-8.624757c0,-4.149755 -1.669883,-8.051306 -4.70198,-10.985648zm0,0"/>
 </g>
</svg>